<svg width="605" height="69" viewBox="0 0 605 69" fill="none" xmlns="http://www.w3.org/2000/svg">
<path d="M0.469375 34.4C0.469375 27.808 1.94138 21.92 4.88538 16.736C7.89338 11.488 11.9574 7.424 17.0774 4.544C22.2614 1.6 28.0534 0.127998 34.4534 0.127998C41.9414 0.127998 48.5014 2.048 54.1334 5.888C59.7654 9.728 63.7014 15.04 65.9414 21.824H50.4854C48.9494 18.624 46.7734 16.224 43.9574 14.624C41.2054 13.024 38.0054 12.224 34.3574 12.224C30.4534 12.224 26.9654 13.152 23.8934 15.008C20.8854 16.8 18.5174 19.36 16.7894 22.688C15.1254 26.016 14.2934 29.92 14.2934 34.4C14.2934 38.816 15.1254 42.72 16.7894 46.112C18.5174 49.44 20.8854 52.032 23.8934 53.888C26.9654 55.68 30.4534 56.576 34.3574 56.576C38.0054 56.576 41.2054 55.776 43.9574 54.176C46.7734 52.512 48.9494 50.08 50.4854 46.88H65.9414C63.7014 53.728 59.7654 59.072 54.1334 62.912C48.5654 66.688 42.0054 68.576 34.4534 68.576C28.0534 68.576 22.2614 67.136 17.0774 64.256C11.9574 61.312 7.89338 57.248 4.88538 52.064C1.94138 46.88 0.469375 40.992 0.469375 34.4ZM133.005 0.991999V68H119.565V39.488H90.8609V68H77.4209V0.991999H90.8609V28.544H119.565V0.991999H133.005ZM159.673 11.84V28.64H182.233V39.296H159.673V57.056H185.113V68H146.233V0.895994H185.113V11.84H159.673ZM231.887 68L217.103 41.888H210.767V68H197.327V0.991999H222.479C227.663 0.991999 232.079 1.92 235.727 3.776C239.375 5.568 242.095 8.032 243.887 11.168C245.743 14.24 246.671 17.696 246.671 21.536C246.671 25.952 245.391 29.952 242.831 33.536C240.271 37.056 236.463 39.488 231.407 40.832L247.439 68H231.887ZM210.767 31.808H221.999C225.647 31.808 228.367 30.944 230.159 29.216C231.951 27.424 232.847 24.96 232.847 21.824C232.847 18.752 231.951 16.384 230.159 14.72C228.367 12.992 225.647 12.128 221.999 12.128H210.767V31.808ZM319.019 0.991999L294.443 68H278.123L253.547 0.991999H267.947L286.379 54.272L304.715 0.991999H319.019Z" fill="white" fill-opacity="0.02"/>
<path d="M361.637 68L346.853 41.888H340.517V68H327.077V0.991999H352.229C357.413 0.991999 361.829 1.92 365.477 3.776C369.125 5.568 371.845 8.032 373.637 11.168C375.493 14.24 376.421 17.696 376.421 21.536C376.421 25.952 375.141 29.952 372.581 33.536C370.021 37.056 366.213 39.488 361.157 40.832L377.189 68H361.637ZM340.517 31.808H351.749C355.397 31.808 358.117 30.944 359.909 29.216C361.701 27.424 362.597 24.96 362.597 21.824C362.597 18.752 361.701 16.384 359.909 14.72C358.117 12.992 355.397 12.128 351.749 12.128H340.517V31.808ZM419.681 68.672C413.409 68.672 407.649 67.2 402.401 64.256C397.153 61.312 392.993 57.248 389.921 52.064C386.849 46.816 385.313 40.896 385.313 34.304C385.313 27.776 386.849 21.92 389.921 16.736C392.993 11.488 397.153 7.39199 402.401 4.44799C407.649 1.504 413.409 0.0319996 419.681 0.0319996C426.017 0.0319996 431.777 1.504 436.961 4.44799C442.209 7.39199 446.337 11.488 449.345 16.736C452.417 21.92 453.953 27.776 453.953 34.304C453.953 40.896 452.417 46.816 449.345 52.064C446.337 57.248 442.209 61.312 436.961 64.256C431.713 67.2 425.953 68.672 419.681 68.672ZM419.681 56.672C423.713 56.672 427.265 55.776 430.337 53.984C433.409 52.128 435.809 49.504 437.537 46.112C439.265 42.72 440.129 38.784 440.129 34.304C440.129 29.824 439.265 25.92 437.537 22.592C435.809 19.2 433.409 16.608 430.337 14.816C427.265 13.024 423.713 12.128 419.681 12.128C415.649 12.128 412.065 13.024 408.929 14.816C405.857 16.608 403.457 19.2 401.729 22.592C400.001 25.92 399.137 29.824 399.137 34.304C399.137 38.784 400.001 42.72 401.729 46.112C403.457 49.504 405.857 52.128 408.929 53.984C412.065 55.776 415.649 56.672 419.681 56.672ZM477.392 57.344H499.472V68H463.952V0.991999H477.392V57.344ZM521.455 11.84V28.64H544.015V39.296H521.455V57.056H546.895V68H508.015V0.895994H546.895V11.84H521.455ZM604.708 0.991999V11.84H586.852V68H573.412V11.84H555.556V0.991999H604.708Z" fill="black" fill-opacity="0.04"/>
</svg>
