<svg width="161" height="59" viewBox="0 0 161 59" fill="none" xmlns="http://www.w3.org/2000/svg">
<path d="M107.193 0C109.118 0 110.177 1.03667 110.177 3.00124L110.18 9.81641C110.18 11.429 110.95 11.7778 112.121 11.7778L158.18 11.7714C159.316 11.7714 160.978 12.4465 160.978 14.3695C160.978 15.0958 160.763 15.4413 160.446 16.0557L145.916 44.3658C144.902 46.2376 143.446 46.7687 141.43 46.7687L112.121 46.7783C110.77 46.7783 110.18 47.3447 110.18 48.7365L110.186 55.5485C110.186 57.6442 108.99 58.5145 107.193 58.5145H54.4691C52.6722 58.5145 51.4785 57.5834 51.4785 55.5293L51.4817 48.7205C51.4817 47.415 50.9748 46.7591 49.534 46.7591L2.80448 46.7655C0.741229 46.7655 0 45.3001 0 44.1674C0 43.7355 0.112307 43.3131 0.301626 42.9484L14.9947 14.3087C15.6942 12.8656 17.0419 11.7682 19.3522 11.7682L49.534 11.7586C50.7983 11.7586 51.4785 11.2338 51.4785 9.80041L51.4817 2.98524C51.485 1.10707 52.4989 0 54.4691 0H107.193Z" fill="white"/>
<path d="M99.0869 9.09314C100.399 9.09314 101.051 9.67547 101.051 11.0673V18.9255C101.051 20.2758 101.676 20.8709 103.034 20.8709H144.979C146.314 20.8709 146.753 21.7476 146.753 22.4451C146.753 22.7005 146.69 22.952 146.571 23.1778L139.563 36.8434C139.123 37.6369 138.346 37.6689 137.794 37.6689H103.031C101.593 37.6689 101.067 38.3184 101.067 39.6238L101.064 47.4885C101.064 48.7907 100.486 49.421 99.0869 49.421H62.5709C61.3452 49.421 60.6007 48.9923 60.6007 47.4693L60.5975 39.611C60.5975 38.1776 59.9365 37.6625 58.6273 37.6625H16.0018C14.9558 37.6625 14.2306 37.0097 14.2306 36.0979C14.2306 35.8291 14.2948 35.5859 14.4135 35.3619L21.4183 21.6996C21.6846 21.2197 22.1242 20.8773 23.1831 20.8773L58.6273 20.8869C59.8531 20.8869 60.6104 20.3942 60.6104 18.9127V11.0481C60.6104 9.65627 61.2168 9.09954 62.5709 9.09954L99.0869 9.09314Z" fill="#121214"/>
</svg>
